<svg xmlns="http://www.w3.org/2000/svg" viewBox="0 0 3000 3000" id="notification-of-enrollment"><path fill="#00BBFA" d="M1934.69 1804.54L1135.42 1653.76C1114.9 1649.89 1093.69 1654.33 1076.45 1666.1C1059.2 1677.88 1047.34 1696.02 1043.47 1716.53L944.2 2242.9C942.283 2253.06 942.386 2263.5 944.504 2273.62C946.621 2283.74 950.711 2293.34 956.541 2301.88C962.37 2310.42 969.824 2317.73 978.478 2323.39C987.132 2329.04 996.815 2332.94 1006.98 2334.86L1806.24 2485.61C1811.11 2486.53 1816.05 2486.99 1821 2487C1839.32 2486.94 1857.05 2480.51 1871.13 2468.8C1885.22 2457.09 1894.79 2440.83 1898.2 2422.83L1997.47 1896.46C2001.3 1875.95 1996.85 1854.76 1985.08 1837.52C1973.31 1820.29 1955.19 1808.43 1934.69 1804.54Z"></path><path fill="#000" d="M1482.59 2146.33C1441.12 2146.33 1399.83 2127.59 1374.25 2093.06L1081.23 1697.51C1080.21 1696.17 1079.46 1694.65 1079.03 1693.02C1078.61 1691.39 1078.51 1689.7 1078.74 1688.04C1078.98 1686.37 1079.54 1684.77 1080.4 1683.33C1081.26 1681.88 1082.4 1680.62 1083.75 1679.62C1085.1 1678.62 1086.64 1677.9 1088.27 1677.5C1089.9 1677.1 1091.6 1677.03 1093.26 1677.29C1094.92 1677.55 1096.51 1678.14 1097.94 1679.02C1099.37 1679.9 1100.61 1681.06 1101.59 1682.43L1394.62 2077.96C1426.87 2121.51 1492.89 2133.97 1538.79 2105.11L1964.18 1838.23C1967.02 1836.44 1970.46 1835.86 1973.74 1836.61C1977.02 1837.36 1979.86 1839.38 1981.65 1842.23C1983.43 1845.07 1984.01 1848.51 1983.26 1851.79C1982.51 1855.06 1980.49 1857.91 1977.64 1859.69L1552.26 2126.58C1531.36 2139.59 1507.21 2146.43 1482.59 2146.33Z"></path><path fill="#000" d="M974.972 2310.65C972.311 2310.66 969.716 2309.82 967.556 2308.27 965.396 2306.72 963.779 2304.52 962.936 2302 962.093 2299.48 962.065 2296.75 962.858 2294.21 963.65 2291.67 965.222 2289.44 967.351 2287.85L1325.18 2018.99C1326.51 2017.99 1328.03 2017.26 1329.64 2016.85 1331.25 2016.43 1332.93 2016.34 1334.58 2016.57 1336.23 2016.81 1337.81 2017.36 1339.24 2018.21 1340.68 2019.06 1341.93 2020.18 1342.93 2021.51 1343.93 2022.84 1344.66 2024.36 1345.07 2025.97 1345.48 2027.58 1345.58 2029.26 1345.34 2030.91 1345.11 2032.56 1344.55 2034.14 1343.7 2035.58 1342.86 2037.01 1341.73 2038.26 1340.4 2039.26L982.575 2308.12C980.381 2309.77 977.714 2310.65 974.972 2310.65ZM1848.6 2474.16C1846.43 2474.18 1844.29 2473.63 1842.38 2472.58 1840.48 2471.53 1838.88 2470 1837.74 2468.16L1603.38 2088.86C1602.51 2087.44 1601.92 2085.87 1601.65 2084.23 1601.39 2082.58 1601.44 2080.9 1601.83 2079.29 1602.21 2077.67 1602.91 2076.14 1603.88 2074.79 1604.85 2073.44 1606.08 2072.29 1607.5 2071.42 1608.91 2070.54 1610.49 2069.96 1612.13 2069.69 1613.77 2069.42 1615.45 2069.48 1617.07 2069.86 1618.69 2070.25 1620.22 2070.94 1621.57 2071.92 1622.92 2072.89 1624.06 2074.12 1624.94 2075.54L1859.35 2454.83C1861.12 2457.69 1861.67 2461.13 1860.9 2464.4 1860.12 2467.67 1858.08 2470.5 1855.22 2472.26 1853.24 2473.5 1850.94 2474.16 1848.6 2474.16Z"></path><path fill="#00BBFA" d="M688.191 2207.39C648.306 2190.7 611.148 2168.12 577.954 2140.41 534.999 2104.45 509.386 2068.79 494.09 2047.48 489.999 2041.78 485.383 2035.35 483.428 2033.4 480.627 2031.84 478.522 2029.27 477.539 2026.21 476.557 2023.16 476.769 2019.85 478.134 2016.94 479.498 2014.04 481.913 2011.76 484.891 2010.57 487.869 2009.38 491.189 2009.36 494.18 2010.52 500.57 2012.98 504.951 2019.15 514.689 2032.71 544.104 2073.69 613.016 2169.65 769.485 2207.37 771.112 2207.75 772.649 2208.45 774.005 2209.43 775.361 2210.4 776.511 2211.64 777.388 2213.06 778.265 2214.48 778.852 2216.07 779.115 2217.72 779.378 2219.37 779.312 2221.05 778.92 2222.68 778.529 2224.3 777.819 2225.83 776.833 2227.18 775.847 2228.53 774.604 2229.68 773.175 2230.54 771.746 2231.41 770.16 2231.99 768.508 2232.24 766.855 2232.49 765.17 2232.41 763.548 2232.01 737.802 2225.86 712.6 2217.63 688.191 2207.39ZM689.748 2294.69C597.883 2294.69 471.246 2245.4 465.291 2243.03 462.374 2241.66 460.088 2239.24 458.897 2236.24 457.706 2233.25 457.701 2229.91 458.881 2226.92 460.062 2223.92 462.34 2221.48 465.252 2220.11 468.165 2218.73 471.492 2218.51 474.559 2219.5 476.17 2220.13 637.163 2282.85 720.285 2266.87 723.586 2266.24 727.003 2266.94 729.785 2268.83 732.567 2270.71 734.486 2273.63 735.119 2276.93 735.753 2280.23 735.05 2283.64 733.164 2286.43 731.278 2289.21 728.364 2291.13 725.064 2291.76 713.41 2293.85 701.586 2294.83 689.748 2294.69Z"></path><path fill="#000" d="M1062.27 952.527C1059.82 952.524 1057.42 951.807 1055.36 950.463C1049.24 946.463 904.214 850.905 805.253 724.304C780.237 692.283 755.583 657.329 744.704 618.556C739.274 599.061 740.179 557.355 756.18 532.918C763.566 521.659 773.63 514.817 785.287 513.242C792.528 512.246 797.289 511.576 864.409 570.786C899.724 601.939 940.851 639.716 970.881 667.285L988.494 683.449C1172.53 851.955 1270.88 876.175 1271.74 876.41C1274.92 877.245 1277.64 879.278 1279.35 882.083C1281.05 884.887 1281.6 888.243 1280.88 891.445C1280.16 894.647 1278.23 897.444 1275.49 899.249C1272.75 901.053 1269.41 901.723 1266.19 901.119C1262.01 900.196 1161.56 876.284 971.388 702.166C966.193 697.424 960.255 691.975 953.757 686.002C909.336 645.219 807.425 551.635 786.102 539.018C782.431 540.623 779.372 543.364 777.377 546.838C766.625 563.256 764.978 597.015 769.105 611.75C779.278 647.952 803.407 680.825 825.219 708.737C921.519 831.989 1067.78 928.325 1069.23 929.285C1071.51 930.778 1073.25 932.971 1074.19 935.536C1075.13 938.101 1075.22 940.9 1074.44 943.517C1073.65 946.134 1072.05 948.429 1069.86 950.059C1067.67 951.689 1065.01 952.567 1062.27 952.563V952.527Z"></path><path fill="#000" d="M1268.94 901.426C1266.79 901.425 1264.67 900.876 1262.79 899.831 1260.91 898.786 1259.33 897.281 1258.19 895.456 1257.06 893.631 1256.4 891.546 1256.29 889.399 1256.19 887.251 1256.62 885.111 1257.57 883.18L1307.91 780.998C1308.94 778.924 1310.51 777.17 1312.46 775.926 1314.41 774.683 1316.66 773.997 1318.98 773.943 1321.29 773.889 1323.57 774.468 1325.58 775.62 1327.58 776.771 1329.24 778.449 1330.36 780.473L1383.18 876.103H1886.4L1933.24 780.998C1934.27 778.919 1935.84 777.161 1937.79 775.914 1939.74 774.667 1942 773.979 1944.32 773.925 1946.63 773.871 1948.92 774.453 1950.93 775.607 1952.93 776.762 1954.59 778.445 1955.71 780.473L2012.13 882.655C2013.75 885.598 2014.14 889.066 2013.21 892.296 2012.28 895.526 2010.1 898.254 2007.16 899.879 2004.22 901.504 2000.75 901.893 1997.52 900.961 1994.29 900.03 1991.56 897.853 1989.94 894.91L1945.24 813.979 1905.64 894.385C1904.59 896.505 1902.97 898.29 1900.96 899.538 1898.95 900.785 1896.63 901.446 1894.27 901.445H1375.7C1373.44 901.446 1371.21 900.841 1369.26 899.692 1367.31 898.543 1365.7 896.891 1364.6 894.91L1319.93 813.96 1280.32 894.367C1279.28 896.49 1277.65 898.277 1275.64 899.524 1273.63 900.772 1271.31 901.431 1268.94 901.426ZM1025.67 1105.83C1023.79 1105.82 1021.93 1105.39 1020.24 1104.56 881.641 1037.58 776.617 900.176 739.835 824.168 724.068 791.586 724.358 756.415 740.685 722.493 748.062 707.167 758.004 693.216 770.082 681.24 771.293 680.064 772.727 679.141 774.3 678.527 775.872 677.912 777.552 677.619 779.239 677.662 780.927 677.706 782.589 678.087 784.128 678.782 785.666 679.477 787.05 680.473 788.199 681.711 789.347 682.948 790.236 684.403 790.815 685.989 791.393 687.575 791.649 689.261 791.566 690.947 791.484 692.634 791.065 694.286 790.335 695.809 789.605 697.331 788.578 698.692 787.315 699.812 784.943 702.056 733.01 751.817 762.661 813.127 796.546 883.161 899.435 1018.03 1031.27 1081.75 1033.84 1083 1035.92 1085.08 1037.16 1087.66 1038.4 1090.23 1038.73 1093.15 1038.11 1095.94 1037.48 1098.73 1035.92 1101.23 1033.69 1103.02 1031.47 1104.82 1028.7 1105.81 1025.84 1105.83H1025.67Z"></path><path fill="#000" d="M1199.19 1403.31C1196.69 1403.31 1194.24 1402.56 1192.15 1401.17C1152.47 1374.58 889.515 1169.36 815.155 1090.37C789.921 1063.56 777.866 1035.1 779.278 1005.78C781.45 961.07 814.63 931.565 816.042 930.316C818.581 928.204 821.844 927.167 825.137 927.426C828.429 927.684 831.49 929.218 833.668 931.701C835.847 934.184 836.969 937.418 836.798 940.717C836.626 944.015 835.173 947.115 832.749 949.358C832.351 949.72 806.104 973.469 804.583 1007.28C803.588 1029.38 813.363 1051.52 833.546 1073.03C905.046 1148.91 1168.01 1354.49 1206.25 1380.1C1208.52 1381.61 1210.23 1383.81 1211.15 1386.37C1212.06 1388.93 1212.13 1391.72 1211.34 1394.32C1210.54 1396.92 1208.94 1399.2 1206.75 1400.82C1204.56 1402.44 1201.91 1403.31 1199.19 1403.31Z"></path><path fill="#000" d="M1898.99 1526.32H1370.92C1319.49 1526.28 1270.18 1505.83 1233.81 1469.47C1197.44 1433.1 1176.99 1383.8 1176.93 1332.37V888.757C1176.93 885.396 1178.26 882.173 1180.64 879.797C1183.02 877.421 1186.24 876.086 1189.6 876.086H2080.19C2083.55 876.086 2086.77 877.421 2089.15 879.797C2091.53 882.173 2092.86 885.396 2092.86 888.757V1332.37C2092.8 1383.78 2072.36 1433.06 2036.02 1469.42C1999.68 1505.78 1950.4 1526.24 1898.99 1526.32ZM1202.27 901.428V1332.37C1202.32 1377.07 1220.11 1419.93 1251.72 1451.54C1283.33 1483.15 1326.18 1500.93 1370.89 1500.98H1898.99C1943.7 1500.93 1986.56 1483.15 2018.17 1451.54C2049.78 1419.93 2067.56 1377.07 2067.61 1332.37V901.428H1202.27Z"></path><path fill="#000" d="M1062.27 952.527C1059.82 952.524 1057.42 951.807 1055.36 950.463C1049.24 946.463 904.214 850.905 805.253 724.304C780.237 692.283 755.583 657.329 744.704 618.556C739.274 599.061 740.179 557.355 756.18 532.918C763.566 521.659 773.63 514.817 785.287 513.242C792.528 512.246 797.289 511.576 864.409 570.786C899.724 601.939 940.851 639.716 970.881 667.285L988.494 683.449C1172.53 851.955 1270.88 876.175 1271.74 876.41C1274.92 877.245 1277.64 879.278 1279.35 882.083C1281.05 884.887 1281.6 888.243 1280.88 891.445C1280.16 894.647 1278.23 897.444 1275.49 899.249C1272.75 901.053 1269.41 901.723 1266.19 901.119C1262.01 900.196 1161.56 876.284 971.388 702.166C966.193 697.424 960.255 691.975 953.757 686.002C909.336 645.219 807.425 551.635 786.102 539.018C782.431 540.623 779.372 543.364 777.377 546.838C766.625 563.256 764.978 597.015 769.105 611.75C779.278 647.952 803.407 680.825 825.219 708.737C921.519 831.989 1067.78 928.325 1069.23 929.285C1071.51 930.778 1073.25 932.971 1074.19 935.536C1075.13 938.101 1075.22 940.9 1074.44 943.517C1073.65 946.134 1072.05 948.429 1069.86 950.059C1067.67 951.689 1065.01 952.567 1062.27 952.563V952.527Z"></path><path fill="#000" d="M1025.67 1105.83C1023.79 1105.82 1021.93 1105.39 1020.24 1104.56C881.641 1037.58 776.617 900.176 739.835 824.168C724.068 791.586 724.358 756.415 740.685 722.493C748.062 707.167 758.004 693.216 770.082 681.24C771.293 680.064 772.727 679.141 774.3 678.527C775.872 677.912 777.552 677.619 779.239 677.662C780.927 677.706 782.589 678.087 784.128 678.782C785.666 679.477 787.05 680.473 788.199 681.711C789.347 682.948 790.236 684.403 790.815 685.989C791.393 687.575 791.649 689.261 791.566 690.947C791.484 692.634 791.065 694.286 790.335 695.809C789.605 697.331 788.578 698.692 787.315 699.812C784.943 702.056 733.01 751.817 762.661 813.127C796.546 883.161 899.435 1018.03 1031.27 1081.75C1033.84 1083 1035.92 1085.08 1037.16 1087.66C1038.4 1090.23 1038.73 1093.15 1038.11 1095.94C1037.48 1098.73 1035.92 1101.23 1033.69 1103.02C1031.47 1104.82 1028.7 1105.81 1025.84 1105.83H1025.67Z"></path><path fill="#000" d="M1199.19 1403.31C1196.69 1403.31 1194.24 1402.56 1192.15 1401.17 1152.47 1374.58 889.515 1169.36 815.155 1090.37 789.921 1063.56 777.866 1035.1 779.278 1005.78 781.45 961.07 814.63 931.565 816.042 930.316 818.581 928.204 821.844 927.167 825.137 927.426 828.429 927.684 831.49 929.218 833.668 931.701 835.847 934.184 836.969 937.418 836.798 940.717 836.626 944.015 835.173 947.115 832.749 949.358 832.351 949.72 806.104 973.469 804.583 1007.28 803.588 1029.38 813.363 1051.52 833.546 1073.03 905.046 1148.91 1168.01 1354.49 1206.25 1380.1 1208.52 1381.61 1210.23 1383.81 1211.15 1386.37 1212.06 1388.93 1212.13 1391.72 1211.34 1394.32 1210.54 1396.92 1208.94 1399.2 1206.75 1400.82 1204.56 1402.44 1201.91 1403.31 1199.19 1403.31ZM2207.64 952.527C2204.91 952.531 2202.25 951.653 2200.06 950.023 2197.87 948.393 2196.26 946.098 2195.48 943.481 2194.7 940.864 2194.78 938.064 2195.72 935.5 2196.66 932.935 2198.4 930.742 2200.69 929.248 2202.16 928.289 2348.4 831.953 2444.72 708.701 2466.44 680.788 2490.64 647.97 2500.83 611.713 2504.96 596.979 2503.31 563.22 2492.56 546.802 2490.57 543.324 2487.51 540.582 2483.83 538.982 2462.51 551.653 2360.58 645.201 2316.16 685.983L2298.56 702.13C2108.37 876.284 2007.95 900.195 2003.77 901.119 2000.53 901.743 1997.18 901.084 1994.43 899.282 1991.67 897.481 1989.73 894.678 1989 891.466 1988.28 888.255 1988.83 884.888 1990.55 882.078 1992.26 879.267 1995 877.235 1998.19 876.41 1999.19 876.175 2097.44 851.919 2281.44 683.449L2299.02 667.321C2329.05 639.752 2370.19 601.975 2405.51 570.804 2472.65 511.576 2477.41 512.246 2484.65 513.242 2496.3 514.853 2506.37 521.659 2513.75 532.918 2529.76 557.355 2530.7 599.06 2525.23 618.556 2514.37 657.329 2489.72 692.283 2464.7 724.304 2365.74 851.014 2220.71 946.463 2214.57 950.463 2212.51 951.81 2210.1 952.527 2207.64 952.527Z"></path><path fill="#000" d="M2244.24 1105.83C2241.37 1105.83 2238.59 1104.85 2236.35 1103.07C2234.11 1101.28 2232.54 1098.78 2231.89 1095.99C2231.25 1093.19 2231.58 1090.26 2232.82 1087.68C2234.06 1085.09 2236.14 1083 2238.72 1081.75C2370.55 1018.04 2473.44 883.162 2507.35 813.128C2537.05 751.728 2484.9 701.895 2482.66 699.813C2481.44 698.681 2480.45 697.319 2479.76 695.806C2479.07 694.293 2478.68 692.658 2478.62 690.995C2478.55 689.331 2478.82 687.672 2479.4 686.112C2479.98 684.552 2480.86 683.121 2482 681.902C2483.13 680.683 2484.49 679.698 2486 679.005C2487.52 678.312 2489.15 677.923 2490.81 677.862C2492.48 677.801 2494.14 678.068 2495.7 678.647C2497.26 679.227 2498.69 680.109 2499.91 681.241C2511.98 693.217 2521.93 707.169 2529.3 722.494C2545.59 756.416 2545.92 791.569 2530.15 824.17C2493.37 900.196 2388.35 1037.59 2249.75 1104.56C2248.03 1105.4 2246.15 1105.83 2244.24 1105.83Z"></path><path fill="#000" d="M2070.72 1403.31C2068 1403.31 2065.35 1402.44 2063.17 1400.82 2060.98 1399.21 2059.37 1396.93 2058.58 1394.32 2057.79 1391.72 2057.86 1388.93 2058.77 1386.37 2059.69 1383.81 2061.4 1381.61 2063.66 1380.1 2101.91 1354.49 2364.87 1148.91 2436.32 1072.99 2456.57 1051.49 2466.33 1029.35 2465.28 1007.25 2463.76 973.382 2437.38 949.596 2437.11 949.325 2434.59 947.107 2433.05 943.977 2432.83 940.623 2432.61 937.269 2433.74 933.966 2435.95 931.441 2438.17 928.915 2441.3 927.375 2444.66 927.157 2448.01 926.94 2451.31 928.064 2453.84 930.282 2455.23 931.513 2488.41 961.054 2490.58 1005.75 2492 1035.07 2479.94 1063.53 2454.71 1090.33 2380.37 1169.33 2117.41 1374.53 2077.71 1401.14 2075.64 1402.53 2073.21 1403.29 2070.72 1403.31ZM2207.64 952.527C2204.91 952.531 2202.25 951.653 2200.06 950.023 2197.87 948.393 2196.26 946.098 2195.48 943.481 2194.7 940.864 2194.78 938.064 2195.72 935.5 2196.66 932.935 2198.4 930.742 2200.69 929.248 2202.16 928.289 2348.4 831.953 2444.72 708.701 2466.44 680.788 2490.64 647.97 2500.83 611.713 2504.96 596.979 2503.31 563.22 2492.56 546.802 2490.57 543.324 2487.51 540.582 2483.83 538.982 2462.51 551.653 2360.58 645.201 2316.16 685.983L2298.56 702.13C2108.37 876.284 2007.95 900.195 2003.77 901.119 2000.53 901.743 1997.18 901.084 1994.43 899.282 1991.67 897.481 1989.73 894.678 1989 891.466 1988.28 888.255 1988.83 884.888 1990.55 882.078 1992.26 879.267 1995 877.235 1998.19 876.41 1999.19 876.175 2097.44 851.919 2281.44 683.449L2299.02 667.321C2329.05 639.752 2370.19 601.975 2405.51 570.804 2472.65 511.576 2477.41 512.246 2484.65 513.242 2496.3 514.853 2506.37 521.659 2513.75 532.918 2529.76 557.355 2530.7 599.06 2525.23 618.556 2514.37 657.329 2489.72 692.283 2464.7 724.304 2365.74 851.014 2220.71 946.463 2214.57 950.463 2212.51 951.81 2210.1 952.527 2207.64 952.527Z"></path><path fill="#000" d="M2244.24 1105.83C2241.37 1105.83 2238.59 1104.85 2236.35 1103.07C2234.11 1101.28 2232.54 1098.78 2231.89 1095.99C2231.25 1093.19 2231.58 1090.26 2232.82 1087.68C2234.06 1085.09 2236.14 1083 2238.72 1081.75C2370.55 1018.04 2473.44 883.162 2507.35 813.128C2537.05 751.728 2484.9 701.895 2482.66 699.813C2481.44 698.681 2480.45 697.319 2479.76 695.806C2479.07 694.293 2478.68 692.658 2478.62 690.995C2478.55 689.331 2478.82 687.672 2479.4 686.112C2479.98 684.552 2480.86 683.121 2482 681.902C2483.13 680.683 2484.49 679.698 2486 679.005C2487.52 678.312 2489.15 677.923 2490.81 677.862C2492.48 677.801 2494.14 678.068 2495.7 678.647C2497.26 679.227 2498.69 680.109 2499.91 681.241C2511.98 693.217 2521.93 707.169 2529.3 722.494C2545.59 756.416 2545.92 791.569 2530.15 824.17C2493.37 900.196 2388.35 1037.59 2249.75 1104.56C2248.03 1105.4 2246.15 1105.83 2244.24 1105.83Z"></path><path fill="#000" d="M2070.72 1403.31C2068 1403.31 2065.35 1402.44 2063.17 1400.82 2060.98 1399.21 2059.37 1396.93 2058.58 1394.32 2057.79 1391.72 2057.86 1388.93 2058.77 1386.37 2059.69 1383.81 2061.4 1381.61 2063.66 1380.1 2101.91 1354.49 2364.87 1148.91 2436.32 1072.99 2456.57 1051.49 2466.33 1029.35 2465.28 1007.25 2463.76 973.382 2437.38 949.596 2437.11 949.325 2434.59 947.107 2433.05 943.977 2432.83 940.623 2432.61 937.269 2433.74 933.966 2435.95 931.441 2438.17 928.915 2441.3 927.375 2444.66 927.157 2448.01 926.94 2451.31 928.064 2453.84 930.282 2455.23 931.513 2488.41 961.054 2490.58 1005.75 2492 1035.07 2479.94 1063.53 2454.71 1090.33 2380.37 1169.33 2117.41 1374.53 2077.71 1401.14 2075.64 1402.53 2073.21 1403.29 2070.72 1403.31ZM1914.8 1023.45C1911.6 1023.46 1908.52 1022.26 1906.17 1020.1 1903.82 1017.93 1902.38 1014.96 1902.13 1011.77 1899.18 974.81 1872.26 964.71 1852.62 957.469 1847.11 955.695 1841.81 953.315 1836.82 950.374 1834.08 948.484 1832.2 945.596 1831.58 942.333 1830.95 939.07 1831.64 935.693 1833.48 932.928 1835.32 930.163 1838.17 928.232 1841.43 927.551 1844.68 926.869 1848.07 927.492 1850.86 929.285 1854.27 931.038 1857.81 932.52 1861.45 933.72 1883.01 941.739 1923.14 956.655 1927.4 1009.75 1927.66 1013.09 1926.59 1016.41 1924.41 1018.97 1922.23 1021.52 1919.12 1023.11 1915.77 1023.38 1915.45 1023.42 1915.12 1023.44 1914.8 1023.45ZM1329.18 1023.45C1327.1 1023.45 1325.05 1022.94 1323.22 1021.96 1321.38 1020.98 1319.82 1019.57 1318.66 1017.84 1317.5 1016.11 1316.78 1014.13 1316.57 1012.06 1316.36 1009.99 1316.66 1007.9 1317.45 1005.98 1317.6 1005.45 1317.78 1004.71 1318.01 1003.79 1329.72 957.648 1356.86 931.907 1398.69 927.255 1401.99 926.967 1405.26 927.979 1407.82 930.075 1410.38 932.172 1412.02 935.186 1412.39 938.475 1412.75 941.763 1411.82 945.064 1409.78 947.673 1407.75 950.281 1404.77 951.99 1401.5 952.434 1360.62 956.978 1348.3 987.479 1342.58 1010.01 1342.13 1012.22 1341.44 1014.37 1340.51 1016.42 1339.46 1018.53 1337.85 1020.3 1335.84 1021.55 1333.84 1022.79 1331.54 1023.44 1329.18 1023.45ZM1317.85 1005.09C1317.76 1005.27 1317.65 1005.49 1317.54 1005.76 1317.63 1005.54 1317.74 1005.33 1317.85 1005.09ZM1483.42 1292.53C1465.59 1292.57 1447.97 1288.63 1431.85 1281.01 1397.77 1264.9 1373.38 1233.95 1363.21 1193.69 1353.26 1154.39 1358.12 1110.86 1376.91 1071.13 1395.7 1031.39 1426.28 1000.01 1462.93 982.738 1500.46 965.107 1539.9 964.274 1573.98 980.403 1608.07 996.531 1632.43 1027.47 1642.61 1067.72 1652.56 1107.02 1647.69 1150.56 1628.9 1190.29 1610.11 1230.02 1579.59 1261.5 1542.89 1278.68 1524.33 1287.62 1504.02 1292.35 1483.42 1292.53ZM1522.43 994.305C1505.56 994.473 1488.93 998.367 1473.74 1005.71 1442.37 1020.44 1416.12 1047.52 1399.83 1081.95 1383.54 1116.38 1379.27 1153.87 1387.77 1187.46 1396.06 1220.19 1415.56 1245.28 1442.68 1258.06 1469.79 1270.84 1501.56 1270.06 1532.11 1255.71 1563.5 1240.95 1589.75 1213.87 1606.04 1179.45 1622.33 1145.02 1626.6 1107.55 1618.08 1073.93 1609.79 1041.22 1590.29 1016.13 1563.18 1003.34 1550.43 997.34 1536.51 994.254 1522.43 994.305Z"></path><path fill="#000" d="M1786.49 1292.53C1765.89 1292.35 1745.59 1287.62 1727.03 1278.68C1690.34 1261.45 1659.77 1230.06 1640.98 1190.33C1601.79 1107.46 1626.5 1013.3 1695.9 980.442C1765.3 947.588 1853.81 988.261 1893 1071.13C1932.19 1154 1907.48 1248.16 1838.07 1281.11C1821.94 1288.7 1804.32 1292.6 1786.49 1292.53ZM1747.45 994.325C1733.38 994.279 1719.47 997.371 1706.74 1003.38C1649.88 1030.27 1630.71 1109.29 1663.89 1179.52C1680.18 1213.91 1706.43 1241.07 1737.8 1255.78C1768.36 1270.14 1800.12 1270.97 1827.24 1258.14C1884.08 1231.25 1903.27 1152.24 1870.09 1081.99C1844.44 1027.72 1794.88 994.325 1747.45 994.325Z"></path><path fill="#000" d="M1634.89 1327.69C1632.89 1327.69 1630.91 1327.22 1629.12 1326.3 1627.33 1325.38 1625.79 1324.06 1624.61 1322.43L1569.19 1245.48C1567.47 1242.75 1566.86 1239.47 1567.48 1236.3 1568.1 1233.14 1569.91 1230.33 1572.53 1228.45 1575.15 1226.57 1578.38 1225.76 1581.58 1226.18 1584.78 1226.6 1587.69 1228.23 1589.73 1230.73L1634.99 1293.43 1680.15 1230.73C1682.11 1228 1685.08 1226.16 1688.4 1225.63 1691.72 1225.09 1695.12 1225.89 1697.84 1227.86 1700.57 1229.82 1702.4 1232.79 1702.94 1236.11 1703.48 1239.43 1702.68 1242.82 1700.71 1245.55L1645.19 1322.5C1644.01 1324.12 1642.46 1325.43 1640.67 1326.34 1638.88 1327.24 1636.9 1327.71 1634.89 1327.69ZM1526.05 1410.04C1508.09 1410.04 1497.09 1402.8 1490.83 1396.46 1474.28 1379.68 1475.24 1354.43 1475.4 1351.61 1475.59 1348.25 1477.1 1345.1 1479.61 1342.85 1482.11 1340.61 1485.41 1339.45 1488.77 1339.63 1492.13 1339.82 1495.28 1341.33 1497.53 1343.84 1499.77 1346.35 1500.93 1349.64 1500.75 1353 1500.53 1357.65 1501.6 1371.3 1508.98 1378.74 1513.33 1383.09 1519.5 1385.02 1527.97 1384.66 1559.41 1383.3 1565.08 1359.16 1565.62 1356.41 1566.19 1353.36 1567.86 1350.63 1570.31 1348.73 1572.75 1346.83 1575.81 1345.89 1578.9 1346.1 1582 1346.3 1584.91 1347.63 1587.09 1349.83 1589.26 1352.03 1590.56 1354.96 1590.73 1358.05 1590.89 1360.48 1592.81 1382.25 1610.55 1383.1H1611.53C1631.02 1383.1 1641.54 1354.79 1641.65 1354.5 1642.63 1351.77 1644.53 1349.45 1647.02 1347.95 1649.51 1346.45 1652.44 1345.85 1655.33 1346.25 1658.21 1346.65 1660.86 1348.04 1662.84 1350.17 1664.83 1352.29 1666.01 1355.04 1666.21 1357.94 1666.21 1358.99 1668.4 1384.66 1685.4 1384.66 1704.22 1384.66 1711.79 1354.79 1711.86 1354.5 1712.57 1351.52 1714.33 1348.88 1716.83 1347.1 1719.33 1345.31 1722.39 1344.49 1725.45 1344.8 1728.5 1345.1 1731.35 1346.5 1733.44 1348.75 1735.54 1350.99 1736.76 1353.92 1736.86 1356.98 1737.32 1362.08 1738.88 1367.02 1741.42 1371.47 1746.33 1379.67 1754.55 1383.49 1766.46 1383.1 1774.4 1382.85 1779.85 1380.79 1782.75 1376.99 1787.45 1370.67 1785.75 1359.43 1785.03 1356.75 1784.47 1353.63 1785.11 1350.41 1786.81 1347.73 1788.51 1345.06 1791.15 1343.11 1794.21 1342.29 1797.28 1341.47 1800.54 1341.82 1803.35 1343.29 1806.16 1344.75 1808.33 1347.22 1809.41 1350.2 1810.08 1352.69 1815.6 1375.14 1803 1392.1 1797.74 1399.2 1787.25 1407.8 1767.25 1408.39 1746.11 1409.06 1731.88 1400.59 1723.07 1389.37 1714.63 1400.74 1702.3 1409.95 1685.43 1409.99H1685.33C1667.97 1409.99 1656.8 1400.59 1649.99 1389.19 1640.94 1399.74 1627.55 1409.26 1609.28 1408.37 1602.57 1408.21 1596 1406.42 1590.12 1403.16 1584.25 1399.91 1579.26 1395.28 1575.56 1389.68 1565.82 1400.19 1550.85 1409.01 1529 1409.93 1528.1 1410.02 1527.01 1410.04 1526.05 1410.04ZM1638.8 1489.36C1628.98 1489.53 1619.43 1486.15 1611.89 1479.86 1607.65 1476.21 1604.1 1471.84 1601.39 1466.95 1593.19 1476 1581.75 1484.02 1566.83 1484.02 1538.61 1484.02 1525.31 1455.93 1521.89 1439.33 1521.2 1436.04 1521.85 1432.61 1523.7 1429.8 1525.54 1426.99 1528.43 1425.02 1531.72 1424.34 1535.01 1423.66 1538.44 1424.31 1541.25 1426.15 1544.06 1427.99 1546.02 1430.88 1546.7 1434.17 1546.81 1434.66 1552.44 1458.68 1566.83 1458.68 1580.32 1458.68 1590.98 1439.07 1593.66 1432.21 1594.7 1429.51 1596.64 1427.24 1599.15 1425.8 1601.67 1424.35 1604.6 1423.81 1607.46 1424.26 1610.32 1424.71 1612.95 1426.14 1614.89 1428.29 1616.83 1430.44 1617.98 1433.19 1618.13 1436.09 1618.42 1440.72 1620.81 1454.19 1628.31 1460.52 1630.48 1462.33 1634.28 1464.71 1641.81 1463.84 1664.13 1461.28 1665.03 1441.1 1665 1437.05 1664.91 1433.69 1666.17 1430.43 1668.48 1427.99 1670.8 1425.56 1673.99 1424.14 1677.35 1424.06 1680.71 1423.97 1683.97 1425.23 1686.4 1427.55 1688.84 1429.86 1690.26 1433.05 1690.34 1436.41 1690.5 1440.25 1692.66 1459.94 1718.14 1461.75 1723.97 1462.13 1728.33 1460.89 1731.52 1457.94 1737.75 1452.16 1739.18 1440.68 1739.21 1436.74 1739.21 1433.38 1740.55 1430.16 1742.92 1427.78 1745.3 1425.4 1748.52 1424.07 1751.88 1424.07 1755.24 1424.07 1758.47 1425.4 1760.84 1427.78 1763.22 1430.16 1764.56 1433.38 1764.56 1436.74 1764.56 1439.27 1764.19 1462.08 1748.92 1476.36 1740.57 1484.2 1729.35 1487.89 1716.48 1487.04 1699.01 1485.88 1687.04 1479.26 1679.08 1470.75 1672.06 1479.8 1661.14 1487.04 1644.69 1488.94 1642.74 1489.2 1640.77 1489.34 1638.8 1489.36ZM1457.03 1222.73C1454.37 1222.73 1451.78 1221.89 1449.62 1220.33 1447.46 1218.78 1445.85 1216.58 1445.01 1214.06 1438.04 1193.13 1445.16 1165.65 1461.56 1150.11 1470.42 1141.97 1481.49 1136.64 1493.39 1134.81 1505.28 1132.99 1517.45 1134.73 1528.34 1139.84 1539.24 1144.94 1548.37 1153.17 1554.58 1163.47 1560.79 1173.78 1563.79 1185.69 1563.21 1197.71 1563.09 1199.38 1562.65 1201 1561.9 1202.49 1561.16 1203.98 1560.12 1205.31 1558.86 1206.41 1557.6 1207.5 1556.14 1208.33 1554.56 1208.86 1552.97 1209.39 1551.3 1209.6 1549.64 1209.48 1547.97 1209.36 1546.35 1208.91 1544.86 1208.17 1543.37 1207.42 1542.04 1206.39 1540.94 1205.13 1539.85 1203.87 1539.02 1202.4 1538.49 1200.82 1537.96 1199.24 1537.75 1197.57 1537.87 1195.9 1539.05 1179.1 1528.24 1167.81 1517.74 1162.85 1507.24 1157.89 1491.37 1156.69 1478.93 1168.48 1469.68 1177.24 1465.14 1194.42 1469 1206 1469.52 1207.58 1469.74 1209.25 1469.62 1210.91 1469.5 1212.57 1469.06 1214.19 1468.32 1215.68 1467.57 1217.17 1466.55 1218.5 1465.29 1219.59 1464.03 1220.68 1462.57 1221.51 1460.99 1222.04 1459.72 1222.47 1458.38 1222.71 1457.03 1222.73ZM1812.8 1222.73C1811.44 1222.72 1810.09 1222.5 1808.8 1222.07 1807.21 1221.55 1805.75 1220.72 1804.5 1219.63 1803.24 1218.53 1802.21 1217.21 1801.46 1215.72 1800.72 1214.23 1800.27 1212.61 1800.15 1210.94 1800.04 1209.28 1800.25 1207.62 1800.78 1206.04 1804.63 1194.45 1800.09 1177.27 1790.84 1168.51 1778.4 1156.73 1762.64 1157.87 1752.05 1162.88 1741.46 1167.9 1730.72 1179.17 1731.9 1195.94 1732.14 1199.3 1731.04 1202.61 1728.83 1205.16 1726.62 1207.71 1723.49 1209.27 1720.13 1209.51 1716.77 1209.75 1713.46 1208.65 1710.91 1206.44 1708.36 1204.23 1706.8 1201.11 1706.56 1197.75 1705.98 1185.73 1708.98 1173.81 1715.19 1163.5 1721.4 1153.2 1730.53 1144.97 1741.43 1139.87 1752.33 1134.77 1764.49 1133.02 1776.38 1134.85 1788.28 1136.68 1799.36 1142 1808.22 1150.14 1824.62 1165.69 1831.75 1193.17 1824.76 1214.09 1823.92 1216.6 1822.31 1218.78 1820.16 1220.33 1818.02 1221.88 1815.44 1222.72 1812.8 1222.73ZM1427.54 1716.59C1425.33 1716.59 1423.16 1716.01 1421.25 1714.91 1419.33 1713.81 1417.74 1712.22 1416.62 1710.32 1415.51 1708.41 1414.91 1706.25 1414.89 1704.04 1414.87 1701.83 1415.42 1699.65 1416.5 1697.73L1523.3 1507.44C1524.94 1504.51 1527.69 1502.36 1530.92 1501.45 1534.16 1500.54 1537.62 1500.95 1540.55 1502.59 1543.48 1504.24 1545.64 1506.98 1546.55 1510.21 1547.46 1513.45 1547.05 1516.91 1545.4 1519.84L1438.6 1710.13C1437.5 1712.09 1435.89 1713.72 1433.95 1714.86 1432.01 1715.99 1429.79 1716.59 1427.54 1716.59ZM1719.14 1771.49C1717.08 1771.49 1715.04 1771 1713.22 1770.04 1711.39 1769.08 1709.82 1767.68 1708.66 1765.98 1707.49 1764.28 1706.76 1762.32 1706.52 1760.27 1706.28 1758.22 1706.55 1756.14 1707.3 1754.22L1803 1509.04C1804.39 1506.16 1806.81 1503.9 1809.78 1502.73 1812.76 1501.56 1816.07 1501.56 1819.04 1502.73 1822.02 1503.89 1824.45 1506.14 1825.84 1509.02 1827.22 1511.9 1827.47 1515.2 1826.53 1518.25L1730.94 1763.43C1730.01 1765.81 1728.39 1767.85 1726.28 1769.28 1724.18 1770.72 1721.69 1771.49 1719.14 1771.49Z"></path><path fill="#000" d="M1356.39 1820.54C1353.74 1820.54 1351.16 1819.72 1349.01 1818.18C1346.86 1816.64 1345.25 1814.47 1344.39 1811.96C1343.54 1809.46 1343.49 1806.75 1344.25 1804.22C1345.01 1801.69 1346.55 1799.46 1348.64 1797.84C1366.9 1783.71 1413.8 1740.19 1411.76 1709.15C1411.52 1705.78 1412.62 1702.47 1414.83 1699.92C1417.04 1697.37 1420.16 1695.81 1423.52 1695.57C1426.89 1695.33 1430.2 1696.43 1432.75 1698.64C1435.3 1700.85 1436.86 1703.97 1437.1 1707.34C1440.52 1757.39 1371.94 1811.82 1364.17 1817.75C1361.97 1819.54 1359.22 1820.52 1356.39 1820.54Z"></path><path fill="#000" d="M1420.21 1841.09C1418.11 1841.09 1416.04 1840.56 1414.19 1839.56C1412.34 1838.56 1410.77 1837.12 1409.62 1835.36C1408.47 1833.6 1407.77 1831.58 1407.6 1829.48C1407.42 1827.39 1407.77 1825.28 1408.61 1823.35C1416.07 1806.16 1431.65 1756.01 1414.27 1730.44C1412.39 1727.66 1411.68 1724.24 1412.31 1720.94C1412.94 1717.64 1414.85 1714.72 1417.63 1712.83C1420.41 1710.94 1423.83 1710.24 1427.13 1710.87C1430.43 1711.5 1433.35 1713.41 1435.24 1716.19C1464.04 1758.59 1433.15 1830.45 1431.83 1833.49C1430.85 1835.75 1429.22 1837.67 1427.16 1839.02C1425.09 1840.37 1422.68 1841.09 1420.21 1841.09Z"></path><path fill="#000" d="M1470.01 1833.74C1466.83 1833.75 1463.77 1832.57 1461.42 1830.43 1459.08 1828.3 1457.62 1825.35 1457.34 1822.19 1455.4 1800.22 1444.85 1738.82 1419.6 1718.78 1416.96 1716.69 1415.25 1713.64 1414.86 1710.29 1414.47 1706.95 1415.43 1703.59 1417.51 1700.95 1419.6 1698.31 1422.66 1696.6 1426 1696.21 1429.34 1695.82 1432.7 1696.78 1435.34 1698.87 1473.65 1729.26 1481.77 1810.73 1482.59 1819.93 1482.73 1821.59 1482.55 1823.26 1482.05 1824.84 1481.55 1826.43 1480.74 1827.9 1479.67 1829.18 1478.6 1830.45 1477.28 1831.5 1475.81 1832.27 1474.33 1833.04 1472.72 1833.51 1471.06 1833.65 1470.75 1833.74 1470.39 1833.74 1470.01 1833.74ZM1664.53 1879.52C1662 1879.53 1659.53 1878.79 1657.43 1877.4 1655.33 1876 1653.7 1874 1652.74 1871.67 1651.77 1869.34 1651.53 1866.77 1652.04 1864.3 1652.55 1861.83 1653.78 1859.56 1655.58 1857.8 1672.17 1841.25 1713.65 1791.73 1706.78 1761.57 1706.05 1758.3 1706.65 1754.88 1708.44 1752.05 1710.23 1749.22 1713.06 1747.21 1716.33 1746.47 1719.6 1745.72 1723.02 1746.3 1725.86 1748.08 1728.7 1749.85 1730.72 1752.68 1731.48 1755.94 1742.69 1805.09 1680.58 1868.66 1673.47 1875.75 1672.3 1876.94 1670.91 1877.88 1669.37 1878.53 1667.84 1879.17 1666.19 1879.51 1664.53 1879.52Z"></path><path fill="#000" d="M1730.83 1889.89C1729.91 1889.89 1728.99 1889.79 1728.08 1889.6C1726.46 1889.24 1724.92 1888.56 1723.55 1887.61C1722.19 1886.66 1721.03 1885.44 1720.13 1884.04C1719.24 1882.63 1718.63 1881.07 1718.34 1879.43C1718.05 1877.79 1718.09 1876.11 1718.45 1874.49C1723.3 1852.46 1731.27 1790.26 1709.93 1767.49C1708.64 1766.31 1707.61 1764.87 1706.91 1763.28C1706.2 1761.68 1705.83 1759.96 1705.83 1758.21C1705.82 1756.47 1706.17 1754.74 1706.86 1753.13C1707.56 1751.53 1708.57 1750.09 1709.85 1748.9C1711.12 1747.71 1712.63 1746.79 1714.28 1746.21C1715.92 1745.63 1717.67 1745.39 1719.41 1745.52C1721.15 1745.64 1722.85 1746.13 1724.39 1746.94C1725.94 1747.75 1727.3 1748.88 1728.39 1750.24C1762.62 1786.78 1745.24 1870.61 1743.16 1880.04C1742.52 1882.84 1740.95 1885.33 1738.72 1887.12C1736.48 1888.91 1733.7 1889.88 1730.83 1889.89Z"></path><path fill="#000" d="M1778.86 1874.92C1776.04 1874.92 1773.3 1873.98 1771.08 1872.24C1768.86 1870.51 1767.27 1868.09 1766.58 1865.36C1761.15 1844.18 1740.99 1785.71 1712.89 1769.84C1711.42 1769.03 1710.13 1767.94 1709.08 1766.63C1708.03 1765.32 1707.26 1763.81 1706.8 1762.19C1706.34 1760.58 1706.21 1758.89 1706.41 1757.22C1706.6 1755.56 1707.13 1753.94 1707.96 1752.48C1708.79 1751.02 1709.9 1749.74 1711.23 1748.71C1712.55 1747.69 1714.07 1746.93 1715.69 1746.49C1717.31 1746.06 1719 1745.95 1720.67 1746.17C1722.33 1746.39 1723.93 1746.94 1725.38 1747.79C1767.89 1771.83 1788.88 1850.25 1791.15 1859.12C1791.56 1860.73 1791.65 1862.41 1791.41 1864.05C1791.17 1865.7 1790.61 1867.28 1789.76 1868.72C1788.91 1870.15 1787.78 1871.39 1786.45 1872.39C1785.12 1873.39 1783.6 1874.11 1781.99 1874.52C1780.96 1874.78 1779.91 1874.92 1778.86 1874.92Z"></path></svg>