<svg xmlns="http://www.w3.org/2000/svg" xml:space="preserve" id="tear-off-ticket" x="0" y="0" version="1.0" viewBox="0 0 512 512" enable-background="new 0 0 512 512"><line x1="297.05" x2="394.79" y1="318.64" y2="318.64" fill="none" stroke="#474747" stroke-width="15" stroke-linecap="round" stroke-linejoin="round" stroke-miterlimit="10"></line><line x1="264.69" x2="427.16" y1="267.21" y2="267.21" fill="none" stroke="#474747" stroke-width="15" stroke-linecap="round" stroke-linejoin="round" stroke-miterlimit="10"></line><path d="M172.78,263.14l-31.6-84.2L32.3,218.32l28.45,78.65c17.51-4.39,35.85,5.11,42.13,22.45     c6.27,17.34-1.75,36.38-18.02,44.2l-0.06,45.66h400.86V171.13H200.59l0,21.95" fill="none" stroke="#474747" stroke-width="15" stroke-linecap="round" stroke-linejoin="round" stroke-miterlimit="10"></path><line x1="200.59" x2="200.59" y1="224.28" y2="228.7" fill="none" stroke="#474747" stroke-width="15" stroke-linecap="round" stroke-linejoin="round" stroke-miterlimit="10"></line><line x1="200.59" x2="200.59" y1="259.91" y2="264.33" fill="none" stroke="#474747" stroke-width="15" stroke-linecap="round" stroke-linejoin="round" stroke-miterlimit="10"></line><line x1="200.59" x2="200.59" y1="295.54" y2="299.96" fill="none" stroke="#474747" stroke-width="15" stroke-linecap="round" stroke-linejoin="round" stroke-miterlimit="10"></line><line x1="200.59" x2="200.59" y1="331.18" y2="335.59" fill="none" stroke="#474747" stroke-width="15" stroke-linecap="round" stroke-linejoin="round" stroke-miterlimit="10"></line><line x1="200.59" x2="200.59" y1="366.81" y2="371.22" fill="none" stroke="#474747" stroke-width="15" stroke-linecap="round" stroke-linejoin="round" stroke-miterlimit="10"></line><line x1="164.27" x2="164.27" y1="82.58" y2="104.85" fill="none" stroke="#474747" stroke-width="15" stroke-linecap="round" stroke-linejoin="round" stroke-miterlimit="10"></line><line x1="101.88" x2="118.93" y1="115.82" y2="130.15" fill="none" stroke="#474747" stroke-width="15" stroke-linecap="round" stroke-linejoin="round" stroke-miterlimit="10"></line><line x1="226.65" x2="209.6" y1="115.82" y2="130.15" fill="none" stroke="#474747" stroke-width="15" stroke-linecap="round" stroke-linejoin="round" stroke-miterlimit="10"></line></svg>